<?xml version="1.0" encoding="utf-8"?>
<!-- Generator: Adobe Illustrator 22.1.0, SVG Export Plug-In . SVG Version: 6.00 Build 0)  -->
<svg version="1.1" id="Layer_1" xmlns="http://www.w3.org/2000/svg" xmlns:xlink="http://www.w3.org/1999/xlink" x="0px" y="0px"
	 viewBox="0 0 1920 1080" style="enable-background:new 0 0 1920 1080;" xml:space="preserve">
<style type="text/css">
	.st0{fill:none;stroke:#0071BC;stroke-width:15;stroke-miterlimit:10;}
</style>
<g>
	<g>
		<g>
		</g>
		<g>
			<path d="M1036.6,311.1c7.8-6,15-8.9,21.4-8.9c3.9,0.1,7.2,1.6,9.6,4.5c2.2,2.6,3.3,5.6,3.2,8.9c-0.2,6.4-2.7,14.5-7.6,23.1
				c-6,10.6-13.2,19.3-21.9,28c-7.3,7.3-14.7,11.1-21.5,11.3c-2.5,0.1-4.9-0.2-7-1c-2.1-0.8-4-2-5.8-3.8c-0.6,1.2-1,1.9-1.2,2.3
				c-1.3,3.1-2.1,5-2.7,5.7c-0.5,0.7-1.3,1.1-2.5,1.1c-1.5,0.1-3-0.7-4.5-2.3c-1-1.1-1.7-2.4-1.7-3.6c0.5-10.9,8.1-24.7,12.8-35.7
				c13.4-31.1,30.9-60.3,51.2-88.1c8.7-11.7,14.5-18.4,16.4-20.4c2.2-2.3,4.3-3.5,6.1-3.5c2.3,0.1,4.2,1.1,5.9,3
				c1.1,1.2,1.6,2.6,1.5,4.1c-0.1,1.7-1.2,3.8-3.2,6.4c-0.4,0.6-3.8,4.6-10,12.3C1060.8,272.3,1046.9,290.6,1036.6,311.1z
				 M1015.5,365c1.4,0.8,2.8,1.1,4.3,1.1c10.2-0.7,18.4-10.9,23.7-19.1c4-5.6,7.2-11.1,9.6-16.6c2.1-4.9,3.2-8.5,3.3-10.9
				c0-1.6-0.4-2.9-1.2-3.6c-0.8-0.8-2.1-1.2-3.9-1.2c-4.3,0-9.4,2.6-15.3,7.8c-6.7,5.9-12.8,14.5-16.7,22.5
				c-2.5,4.7-4.6,9.1-6.3,13.2c-0.6,1.4-0.9,2-1.5,3.4C1012.7,363,1014.1,364.2,1015.5,365z"/>
			<path d="M1084.8,352.9c0,0.9-0.1,1.3-0.1,2.2c-0.1,1.8,0.3,3.4,1.2,4.7c2,3.1,5.6,5,10.4,5.2c15.2,0.6,28.7-10.8,40.2-19.9
				c2.9-2.4,5.3-3.4,7.1-3.2c1,0.1,1.8,0.7,2.5,1.7c0.4,0.7,0.6,1.4,0.6,1.9c-0.4,3.2-5.5,7.9-14.7,14.5
				c-7.2,5.2-14.6,9.3-22.2,12.4c-7.6,3.1-14.4,4.5-20.6,4.2c-6.4-0.4-11.3-2.7-14.8-7.1c-2.4-3-3.6-7.2-3.3-12.2
				c0.8-16.9,11.3-30,23.3-39.7c8.8-7.1,20.2-14.7,32.7-13.6c2.4,0.2,4.6,1.1,6.4,2.7c2.2,1.9,3.2,4.4,2.9,7.1
				c-0.5,4.3-3.4,9.3-8.5,15.1C1116.9,341.9,1100.7,349.2,1084.8,352.9z M1088.2,343.5c6.3-1.6,11.4-3.5,15.2-5.7
				c6.6-3.9,12.1-8.5,16.3-13.7c1.6-1.8,2.4-3.5,2.6-5.1c0.2-1.6-0.6-2.5-2.4-2.7c-2.4-0.2-6,1-10.6,3.9
				C1099.7,325.7,1094,334.5,1088.2,343.5z"/>
			<path d="M1172.7,345.3c-3.8,3.6-6.5,10.6-8.5,14.3c-1.9,3.7-3,6.3-3.3,7.8c-0.3,2,0.5,3.2,2.6,3.5c3.1,0.5,7.5-1.6,13.5-6.2
				c2.8-2.2,7.2-6.4,13.2-12.4c2.4-2.4,4.6-3.3,6.7-2.9c2.3,0.5,3.2,1.7,2.8,3.7c-0.7,3.5-6.9,9.5-17.1,18.4
				c-7.2,6.3-17.3,13.7-27.3,12.4c-3.1-0.4-5.6-2.2-7.3-5.1c-1.2-2.1-1.6-4.4-1.2-7.1c0.6-4.5,3-10.6,7.1-18.2
				c5.2-9.6,11.7-18.4,18.1-27.2c18.7-23.4,39.4-46,64.3-61.8c11.9-7.5,26.9-16.8,41.3-13.4c2.9,0.7,5.2,2.5,6.6,4.8
				c1.4,2.4,1.9,4.9,1.2,7.1c-6.7,19.8-34.1,34-51,45.7c-14.3,9.8-29.4,18.5-44.5,26.8C1185.7,338,1177.3,341,1172.7,345.3z
				 M1185.7,327.8c23.1-11.7,44.1-26.4,64.3-42.6c11.1-9.1,17.3-15.3,18.3-19c0.5-1.7-0.4-3.1-2.1-3.4
				c-11.3-1.6-26.5,11.3-35.9,18.8C1213.5,295.1,1199.1,311,1185.7,327.8z"/>
		</g>
		<g>
			<path d="M969.3,300.7c-22.6,6.6-53.7,14-65.3,26.3c-10.2,10.7-16.7,37.6-23.5,57.2c-2.1,6.5-3.1,9.8-5,16.3
				c-0.8,2.9-2.3,7.2-3.9,12.7c-1.9,6.3-4.5,10.2-8.1,11.2c-1.9,0.5-3.8,0.1-5.6-0.9c-1.6-1-3-2.4-3.3-3.8c-1.3-8,2.5-18.6,5.1-27.4
				c3.6-12.2,8-24,12.6-35.9c2.4-6,4.3-10.8,5.8-14.6c-6.5,3.3-12.3,6.8-17.4,10.5c-2.4,1.8-4.5,3-6.4,3.4c-2.3,0.6-4.2,0.2-6-1.3
				c-1.2-0.9-2-2.1-2.4-3.6c-0.9-3.4-0.2-6.2,2.1-8.4c3.8-3.6,11.3-8.6,22.3-14.5c8.2-4.4,16.5-8.2,19.5-11.4
				c5.5-5.8,10.2-18.3,15.4-27.5c9.9-16.7,22.4-32,34.7-46.7c14.7-17.6,31-33.7,48.6-48.8c7.1-6.1,15.5-12.4,24.4-13.3
				c3.4-0.3,6.9,0.9,9.5,3c2.3,1.9,3.4,4.1,3.5,6.5c0.1,2.9-1.7,8.1-5.3,15.6c-6.4,13.7-12,28-16.5,42.1c-3.1,9.8-6.2,20.1-7.9,30.4
				c2.2-0.1,3.8-0.3,4.5-0.4c3.4-0.5,6.6-0.5,8.9-0.6c7.2-0.3,10.9,1.9,11,6.5c0.1,2-0.6,4-2.1,6c-1.5,2-3.1,3.2-5.1,3.7
				c-0.7,0.2-2.7,0.4-6,0.6c-6.9,0.4-12.1,1.1-15.4,2c-5.2,18.8-7.3,39.2-8.8,58c-1,12.1-1.9,25.4-0.9,37.7c0.6,7.5-1.2,11.5-5.7,12
				c-3.6,0.4-6.5-1.2-9-4.6c-1.7-2.3-2.9-5.6-3.4-9.9c-2.4-19.6-0.7-39.8,1.6-59.1C966.8,320.1,968.2,310.4,969.3,300.7z
				 M972.8,283.3c0.8-3.1,2.9-11.5,6.5-25.1c0.9-3.5,3.3-10.7,7.3-21.2c3.3-8.7,6.6-17.5,10.1-26.2c-9.3,5.4-17.2,12.5-25,19.8
				c-20.9,22-41.1,45.4-54.6,72.8c9.3-3.8,18.6-7.6,27.9-11.3C954.1,288.7,963.4,285.9,972.8,283.3z"/>
		</g>
	</g>
</g>
<g>
	<g id="Hristodor_2_">
		<g>
			<path d="M880.5,529.9c7.9-10.4,16.9-19.9,26.7-28.6c3.8-3.4,7.8-6.6,12.2-9.6c2.2-1.5,3.6-2.2,4.3-2.3c1.3-0.1,2.8,0.6,4.3,2.3
				c0.9,0.9,1.4,1.7,1.5,2.6c0.1,1.5-1.4,3.6-4.5,6.4c-8.4,7.5-12.3,12.9-12,16.2c0.2,1.9,1.4,2.7,3.7,2.4c3.8-0.4,9.9-4,18.7-10.6
				c1.5-1.1,2.8-1.7,3.8-1.8c0.7-0.1,1.4,0.2,2.2,0.8c0.9,0.7,1.3,1.4,1.4,2.2c0.2,2.4-3.2,6.5-10,12.2c-7.2,6-14.1,9.5-21,10.3
				c-2.8,0.3-5.4-0.1-7.9-1.2c-2.1-0.9-3.4-2.8-3.7-5.7c-0.2-2,0.4-4.4,1.9-7.2c-8.5,7.4-15.3,16.8-21.2,26.4c-5,8.4-9,18-12,27.3
				c-1.4,4-3.4,6.2-6.3,6.7c-3.1,0.5-4.9-0.7-5.3-3.5c-0.4-2.7,0.6-10.6,3.8-23.1c3.9-15.3,8.6-31.1,17.4-44.6
				c4.3-6.8,8.2-10.3,11.7-10.8c1.2-0.1,2.3,0,3.3,0.6c1.2,0.6,2,1.6,2.1,2.8c0.1,1.2-0.5,3-2,5.4c-0.3,0.4-2.4,3.5-6,9
				C884.3,519.7,881.9,524.9,880.5,529.9z"/>
			<path d="M970.7,487.8c1.5-0.1,2.9,0.4,3.9,1.4c0.8,0.8,1.2,1.7,1.2,2.6c0.1,1.5-1.1,4-3.4,7.5c-6.5,10.9-12.8,21.8-17.3,33.6
				c-3.4,8.9-6.3,18.3-8.5,27.6c-1,4.2-2.9,6.4-5.8,6.6c-1.7,0.2-3.1-0.4-4.2-1.6c-1-1-1.6-2.1-1.7-3.3c-0.2-2.4,1.6-10.8,5.9-25.1
				c4.1-13.6,11-25.7,18.4-37.7c2.9-4.5,5.2-7.6,6.6-9.1C967.4,488.8,969,487.9,970.7,487.8z M994.5,441.2c4.2-0.2,6.3,1.6,6.5,5.4
				c0.1,3.4-1.8,7.3-5.7,11.6c-3.7,4.1-7.3,6.3-10.9,6.5c-1.7,0.1-3.2-0.5-4.3-1.5c-1.1-1-1.8-2.3-1.9-3.8c-0.2-3.9,2-8.2,6.7-12.8
				C988.4,443.1,991.6,441.4,994.5,441.2z"/>
			<path d="M1033.6,477.6c5.5,0,9.8,0.8,12.6,2.6c2.8,1.8,4.2,4.5,4.2,8.2c0,4.8-2,9.5-5.9,13.9c-3.7,4.2-9.2,7.7-16.6,10.4
				c-4,1.4-7.4,2.2-10.1,2.3c-3.7,0.1-5.6-1.4-5.7-4.4c-0.1-2,1-3.6,3-4.7c0.5-0.3,3.5-1.1,9-2.3c3.2-0.7,6.3-2.2,9-4.4
				c2.4-1.9,3.6-3.9,3.5-6.1c0-1.7-0.6-3-1.6-3.8c-1.1-0.8-2.7-1.2-4.9-1.2c-5.2,0.1-10.9,2.2-17.1,6.1c-7,4.5-10.5,9.8-10.3,15.7
				c0.2,4.2,2.7,9.5,7.5,15.6c5.3,6.8,8,12.6,8.1,17.4c0.2,7.2-3,12.8-9.5,17.1c-4,2.7-8.5,4.1-13.6,4.3c-8.1,0.4-14.4-2.1-18.9-7.4
				c-3.2-3.8-5-8.4-5.4-13.9c-0.4-6.3,1-11.8,4.2-16.3c2.1-3,4.4-4.5,6.8-4.7c2.2-0.1,3.3,0.6,3.4,2.3c0,0.7-0.3,1.6-1,3
				c-1.8,3.6-2.6,7.8-2.3,12.5c0.2,4,1.9,7.3,5,9.9c2.8,2.3,5.8,3.4,9.2,3.2c3.3-0.1,5.9-1.3,7.7-3.5c1.5-1.8,2.2-4.1,2.1-6.9
				c-0.1-3.4-2.3-7.8-6.7-13.1c-6-7.3-9.3-13.9-9.5-20c-0.4-8.1,4.4-15.5,13.7-22.2C1011.4,481.7,1023.8,477.5,1033.6,477.6z"/>
			<path d="M1091.5,480.7c-6.4,8.2-12.2,17.9-16.9,27.1c-5,9.8-10.5,21.2-10.9,32.3c-0.1,2,0.4,3.6,1.3,4.7c0.9,1.1,2.2,1.6,4,1.7
				c4.3,0.1,9.5-3.6,15.9-11.1c4-4.6,7.7-9.2,10.9-13.8c1.8-2.6,3.6-3.9,5.5-3.8c1.1,0.1,2.1,0.5,2.8,1.2c0.7,0.7,1,1.5,0.9,2.2
				c-0.1,3-5,9.5-13.5,19.6c-6.7,8-16.5,18-27.6,18.1c-4.2,0-7.9-2-10.8-5.8c-1.8-2.5-2.7-5.9-2.6-10.4c0.1-11.9,4.1-23.7,9.4-34.4
				c1.5-3.2,5.7-11.1,12.9-23.4c-2.4,0.5-4.3,0.8-5.5,0.8c-1.9,0-3.6-0.5-5-1.3c-2-1.2-2.9-2.6-2.9-4.3c0-2,1.3-3.7,4-4.8
				c0.7-0.3,4.2-0.7,10.1-1.4c2.2-0.2,5.4-1,9.6-2.1c3.3-5,8.7-11.8,16.4-20.3c4.3-4.7,7.2-7.8,8.9-9.1c2.3-1.9,4.3-2.8,6-2.8
				c1.2,0.1,2.4,0.7,3.5,1.9c1.1,1.1,1.6,2.2,1.5,3.3c-0.1,2.1-3,6.1-8.4,12.1c-3.6,3.9-6.3,7.1-8,9.5c10.2-2,17.6-2.8,22-2.5
				c5,0.3,7.4,2.4,7.2,6.1c-0.1,1.9-1.1,3.2-2.9,4c-0.9,0.4-3.6,0.9-7.2,0.8c-1.4-0.1-8.5,0.9-20.7,3.6
				C1098.1,479.1,1094.8,479.9,1091.5,480.7z"/>
			<path d="M1161.8,485.1c7.4,0.7,10.8,5.3,9.8,13.2c-1.8,14.8-11.2,28.2-20,39.4c-8.3,10.6-20.2,24.9-35.1,24.5
				c-4.7-0.1-8.4-2.7-10.4-7.2c-1.1-2.3-1.6-4.9-1.4-8c0.6-12.1,6.2-23.6,13.2-33.3c7.2-10,16.5-18.8,27.5-24.5
				C1151.6,486,1157,484.6,1161.8,485.1z M1144.1,529.9c-2-1.8-3-3.1-3-4c0.1-0.6,1.6-2.3,4.6-5c8.5-7.6,13.1-13.8,13.6-18.8
				c0.1-0.6-0.1-1.3-0.5-2c-0.6-1.3-1.7-2-3.2-2.1c-2.9-0.2-7.3,1.9-13.1,6.5c-7.6,5.9-13.4,12.3-17.5,19c-4.7,7.6-7.3,14-7.6,19.2
				c-0.1,1.4,0.2,2.6,0.9,3.7c1,1.5,2.4,2.3,4.1,2.5c4.1,0.3,8.7-2.4,13.8-7.9c2.2-2.3,4.1-4.7,5.6-7.2
				C1143.4,531.2,1144.2,529.9,1144.1,529.9z"/>
			<path d="M1227,500.3c10.3-13.8,20.9-27.3,32.5-39.9c6.4-6.9,13-14.2,20.2-19.9c3.6-2.9,7.1-4,9.9-3.5c1.5,0.3,2.8,1.1,3.8,2.3
				c0.9,1.2,1.3,2.5,1,3.7c-0.4,1.8-2.5,4.6-6.5,8.3c-16.4,16.1-32.3,33-46.1,50.9c-10.7,13.9-23,30.3-25.9,48.1
				c-0.7,4.5-0.2,8.4,1.2,11.3c0.3,0.6,1.6,2.1,4,4.5c0.4,0.5,0.6,1.3,0.4,2.5c-0.2,1.6-1.1,3-2.6,4.1c-1.5,1.1-3,1.6-4.6,1.4
				c-1.9-0.3-3.9-1.7-5.9-4.3c-2.9-3.7-4.5-7.7-4.6-12c0-1.8,0.1-5.2,0.4-10c-7.2,8.3-16.2,20.7-28.2,19.8
				c-4.5-0.3-8.1-3.4-10.3-8.7c-1.5-3.5-2.1-7.4-1.7-11.6c1.5-14.8,9.4-27.1,18.8-36.6c8.8-8.8,20.5-16.8,34.7-14.9
				C1220.7,496.3,1223.9,497.8,1227,500.3z M1221.1,509.5c-2.2-1.8-4.2-2.8-5.9-3c-7.4-1-15.6,2.3-22.6,9.8
				c-7.6,8.2-15.3,17.9-16.4,29.9c-0.1,1.2,0,2.4,0.4,3.5c0.8,2.1,2.2,3.3,4.3,3.5c3,0.3,6.9-2.1,11.9-7c7.1-7,13.9-15.4,19.4-23.7
				c2.2-3.1,4.4-6.3,6.5-9.4c0.6-0.9,0.9-1.3,1.5-2.1C1220.4,510.4,1220.6,510.1,1221.1,509.5z"/>
			<path d="M1297.4,505c7.3,1.5,10.2,6.5,8.4,14.2c-3.4,14.5-14.2,26.8-24.3,37c-9.4,9.6-22.9,22.5-37.7,20.5
				c-4.7-0.7-8-3.6-9.6-8.3c-0.8-2.4-1-5.1-0.5-8.1c2-12,8.8-22.8,16.8-31.6c8.3-9.1,18.5-16.8,30.1-21.4
				C1287.1,504.8,1292.7,504,1297.4,505z M1274.8,547.6c-1.8-2-2.7-3.4-2.5-4.3c0.1-0.6,1.8-2.1,5.1-4.5
				c9.3-6.6,14.6-12.3,15.6-17.2c0.1-0.6,0-1.3-0.3-2c-0.5-1.3-1.4-2.2-2.9-2.5c-2.8-0.6-7.5,1.1-13.8,5
				c-8.2,5.1-14.7,10.8-19.5,16.9c-5.5,7-8.8,13.2-9.6,18.3c-0.2,1.4-0.1,2.6,0.5,3.8c0.9,1.6,2.1,2.6,3.8,2.9
				c4.1,0.7,8.9-1.4,14.7-6.3c2.5-2,4.6-4.2,6.4-6.5C1274.1,548.9,1274.9,547.7,1274.8,547.6z"/>
			<path d="M1324.7,550.4c11.2-6.8,23.1-12.5,35.3-17.1c4.7-1.8,9.7-3.3,14.9-4.5c2.6-0.6,4.2-0.8,4.8-0.6c1.3,0.4,2.4,1.6,3.2,3.7
				c0.5,1.2,0.7,2.1,0.5,2.9c-0.4,1.4-2.6,2.9-6.6,4.4c-10.6,3.9-16.2,7.6-17.1,10.8c-0.5,1.8,0.4,3,2.6,3.6
				c3.7,1,10.7-0.1,21.4-3.1c1.8-0.5,3.2-0.6,4.3-0.3c0.7,0.2,1.3,0.7,1.8,1.5c0.6,0.9,0.7,1.8,0.5,2.6c-0.7,2.3-5.4,4.9-13.8,7.7
				c-8.9,3-16.7,3.8-23.4,2c-2.7-0.7-5-2.1-7-3.9c-1.7-1.6-2.2-3.8-1.4-6.7c0.5-2,2-4,4.4-6.1c-10.7,3.8-20.4,10.2-29.4,17
				c-7.7,6.1-14.9,13.6-21,21.2c-2.7,3.2-5.5,4.6-8.3,4c-3.1-0.6-4.3-2.4-3.7-5.1c0.6-2.7,4.4-9.7,11.9-20.2
				c9.1-12.8,19.3-26,32.3-35.4c6.5-4.8,11.5-6.7,14.9-5.8c1.1,0.3,2.1,0.9,2.9,1.7c0.9,1,1.3,2.2,1,3.4c-0.3,1.2-1.6,2.6-3.9,4.3
				c-0.4,0.3-3.5,2.4-8.9,6.3C1331.9,542.3,1327.8,546.3,1324.7,550.4z"/>
		</g>
		<g>
			<path d="M822,499.6c-24,9.6-46.2,21.3-68,35.3c-0.5,1.8-1,3.7-1.4,5.7c-7.2,27.5-11.8,55.1-10.1,83.7c0.5,5.9-1,9.4-4.6,10.4
				c-2.7,0.7-5.4,0.1-8.2-1.9c-2.2-1.5-3.7-3.4-4.3-5.7c-0.8-2.8-1.2-9-1.2-18.6c0.1-9.6,0.6-18.2,1.6-25.7
				c0.4-2.8,1.7-11.1,4.2-24.8c0.6-3.3,1.2-6.7,1.8-10.4c-2.1,1.4-5,3.5-8.6,6.2c-1.6,1.2-3.1,2-4.5,2.4c-3.4,0.9-5.8-0.9-7.1-5.6
				c-0.9-3.1-0.1-5.9,2.3-8.3c1.9-1.9,5.4-4.6,10.6-7.9c5.5-3.6,11.4-6.6,13-8.7c1.8-2.4,3.7-12.5,7.5-25.1c0.6-2.3,3.1-9,7.4-20.1
				c8.6-22.4,18.4-44.7,24.9-67.8c3.3-11.8,5.6-18.6,6.7-20.3c2-3.1,4.7-5.1,8.2-5.7c5.9-1.1,9.5,0.9,10.1,5.4
				c3.8,29.2-22.4,69.9-33.8,97.2c-3.7,8.9-6.1,16.6-7.2,22.8c3.2-1.6,4.8-2.5,8-4.1c20-10.1,40.1-19.8,60.8-28.5
				c11.1-27.8,24.7-54.3,39.5-80.3c2.9-5.2,4.7-8.4,5.2-9.7c2.4-4.8,5.3-7.4,8.7-7.9c2.9-0.3,5.4,0.4,7.5,2.1
				c1.7,1.4,2.6,3.2,2.9,5.2c0.4,3.7-1.4,9.3-5.3,16.8c-0.9,1.8-5.2,9-12.5,21.7c-8.2,14.7-16.6,29.4-22.8,45.1
				c3.3-0.8,5.9-1.4,7.6-1.6c9.2-1.4,14.1,0,14.7,4.1c0.3,2.5-0.8,5.1-3.3,7.9c-1.9,2.1-4.2,3.4-6.9,3.8c-2.7,0.4-4,0.6-6.7,1
				c-2.8,0.4-6.8,1.5-12.2,3.3c-14.3,35.3-25.7,71.9-27.2,110.2c-0.4,6.9-2.3,10.7-5.8,11.4c-2.7,0.6-5.6-0.6-8.7-3.4
				c-2.1-2-3.6-4.4-4-7C795.6,571.1,812.7,530.2,822,499.6z"/>
		</g>
	</g>
</g>
<path class="st0" d="M1455,297.2c-82.1-81-235.6-135.4-411.3-135.4c-175.8,0-329.2,54.5-411.3,135.4"/>
<path class="st0" d="M1457,549.8c-82.1,81-235.6,135.4-411.3,135.4c-175.8,0-329.2-54.5-411.3-135.4"/>
<path class="st0" d="M1396.5,536.1c25.3-29.1,40.4-66.3,40.4-107c0-39.3-14.2-75.5-38.1-104.2"/>
<path class="st0" d="M692,535.5c-25.3-29.2-40.6-66.5-40.6-107.3c0-39.5,14.3-75.8,38.2-104.5"/>
</svg>
